<?xml version="1.0" encoding="UTF-8"?>
<svg xmlns="http://www.w3.org/2000/svg" xmlns:xlink="http://www.w3.org/1999/xlink" width="32px" height="32px" viewBox="0 0 32 32" version="1.1">
<g id="surface1">
<path style=" stroke:none;fill-rule:nonzero;fill:rgb(89.803922%,90.980393%,92.54902%);fill-opacity:1;" d="M 25.308594 27.003906 L 16 27.125 L 6.691406 27.003906 L 4.675781 32 L 27.324219 32 Z M 25.308594 27.003906 "/>
<path style=" stroke:none;fill-rule:nonzero;fill:rgb(27.450982%,80.784315%,67.843139%);fill-opacity:1;" d="M 22.660156 31.335938 C 22.292969 31.335938 21.996094 31.632812 21.996094 32 L 23.328125 32 C 23.328125 31.632812 23.03125 31.335938 22.660156 31.335938 Z M 22.660156 31.335938 "/>
<path style=" stroke:none;fill-rule:nonzero;fill:rgb(27.450982%,80.784315%,67.843139%);fill-opacity:1;" d="M 19.996094 31.335938 C 19.628906 31.335938 19.332031 31.632812 19.332031 32 L 20.664062 32 C 20.664062 31.632812 20.363281 31.335938 19.996094 31.335938 Z M 19.996094 31.335938 "/>
<path style=" stroke:none;fill-rule:nonzero;fill:rgb(27.450982%,80.784315%,67.843139%);fill-opacity:1;" d="M 25.324219 31.335938 C 24.957031 31.335938 24.660156 31.632812 24.660156 32 L 25.992188 32 C 25.992188 31.632812 25.695312 31.335938 25.324219 31.335938 Z M 25.324219 31.335938 "/>
<path style=" stroke:none;fill-rule:nonzero;fill:rgb(27.450982%,80.784315%,67.843139%);fill-opacity:1;" d="M 17.332031 31.335938 C 16.964844 31.335938 16.664062 31.632812 16.664062 32 L 18 32 C 17.996094 31.632812 17.699219 31.335938 17.332031 31.335938 Z M 17.332031 31.335938 "/>
<path style=" stroke:none;fill-rule:nonzero;fill:rgb(27.450982%,80.784315%,67.843139%);fill-opacity:1;" d="M 14.667969 31.335938 C 14.300781 31.335938 14 31.632812 14 32 L 15.335938 32 C 15.335938 31.632812 15.035156 31.335938 14.667969 31.335938 Z M 14.667969 31.335938 "/>
<path style=" stroke:none;fill-rule:nonzero;fill:rgb(27.450982%,80.784315%,67.843139%);fill-opacity:1;" d="M 12.003906 31.335938 C 11.636719 31.335938 11.335938 31.632812 11.335938 32 L 12.667969 32 C 12.667969 31.632812 12.371094 31.335938 12.003906 31.335938 Z M 12.003906 31.335938 "/>
<path style=" stroke:none;fill-rule:nonzero;fill:rgb(27.450982%,80.784315%,67.843139%);fill-opacity:1;" d="M 9.339844 31.335938 C 8.972656 31.335938 8.671875 31.632812 8.671875 32 L 10.003906 32 C 10.003906 31.632812 9.707031 31.335938 9.339844 31.335938 Z M 9.339844 31.335938 "/>
<path style=" stroke:none;fill-rule:nonzero;fill:rgb(27.450982%,80.784315%,67.843139%);fill-opacity:1;" d="M 6.675781 31.335938 C 6.304688 31.335938 6.007812 31.632812 6.007812 32 L 7.339844 32 C 7.339844 31.632812 7.042969 31.335938 6.675781 31.335938 Z M 6.675781 31.335938 "/>
<path style=" stroke:none;fill-rule:nonzero;fill:rgb(89.803922%,90.980393%,92.54902%);fill-opacity:1;" d="M 6.691406 4.996094 L 16 4.875 L 25.308594 4.996094 L 27.324219 0 L 4.675781 0 Z M 6.691406 4.996094 "/>
<path style=" stroke:none;fill-rule:nonzero;fill:rgb(27.450982%,80.784315%,67.843139%);fill-opacity:1;" d="M 9.339844 0.667969 C 9.707031 0.667969 10.003906 0.367188 10.003906 0 L 8.671875 0 C 8.671875 0.367188 8.972656 0.667969 9.339844 0.667969 Z M 9.339844 0.667969 "/>
<path style=" stroke:none;fill-rule:nonzero;fill:rgb(27.450982%,80.784315%,67.843139%);fill-opacity:1;" d="M 12.003906 0.667969 C 12.371094 0.667969 12.667969 0.367188 12.667969 0 L 11.335938 0 C 11.335938 0.367188 11.636719 0.667969 12.003906 0.667969 Z M 12.003906 0.667969 "/>
<path style=" stroke:none;fill-rule:nonzero;fill:rgb(27.450982%,80.784315%,67.843139%);fill-opacity:1;" d="M 6.675781 0.667969 C 7.042969 0.667969 7.339844 0.367188 7.339844 0 L 6.007812 0 C 6.007812 0.367188 6.304688 0.667969 6.675781 0.667969 Z M 6.675781 0.667969 "/>
<path style=" stroke:none;fill-rule:nonzero;fill:rgb(27.450982%,80.784315%,67.843139%);fill-opacity:1;" d="M 14.667969 0.667969 C 15.035156 0.667969 15.335938 0.367188 15.335938 0 L 14 0 C 14 0.367188 14.300781 0.667969 14.667969 0.667969 Z M 14.667969 0.667969 "/>
<path style=" stroke:none;fill-rule:nonzero;fill:rgb(27.450982%,80.784315%,67.843139%);fill-opacity:1;" d="M 17.332031 0.667969 C 17.699219 0.667969 17.996094 0.367188 17.996094 0 L 16.664062 0 C 16.664062 0.367188 16.964844 0.667969 17.332031 0.667969 Z M 17.332031 0.667969 "/>
<path style=" stroke:none;fill-rule:nonzero;fill:rgb(27.450982%,80.784315%,67.843139%);fill-opacity:1;" d="M 19.996094 0.667969 C 20.363281 0.667969 20.664062 0.367188 20.664062 0 L 19.332031 0 C 19.332031 0.367188 19.628906 0.667969 19.996094 0.667969 Z M 19.996094 0.667969 "/>
<path style=" stroke:none;fill-rule:nonzero;fill:rgb(27.450982%,80.784315%,67.843139%);fill-opacity:1;" d="M 22.660156 0.667969 C 23.03125 0.667969 23.328125 0.367188 23.328125 0 L 21.996094 0 C 21.996094 0.367188 22.292969 0.667969 22.660156 0.667969 Z M 22.660156 0.667969 "/>
<path style=" stroke:none;fill-rule:nonzero;fill:rgb(27.450982%,80.784315%,67.843139%);fill-opacity:1;" d="M 25.324219 0.667969 C 25.695312 0.667969 25.992188 0.367188 25.992188 0 L 24.660156 0 C 24.660156 0.367188 24.957031 0.667969 25.324219 0.667969 Z M 25.324219 0.667969 "/>
<path style=" stroke:none;fill-rule:nonzero;fill:rgb(27.450982%,80.784315%,67.843139%);fill-opacity:1;" d="M 25.992188 3.371094 L 6.007812 3.371094 C 6.007812 3.371094 4.675781 8.035156 4.675781 16.027344 C 4.675781 24.023438 6.007812 28.683594 6.007812 28.683594 L 25.992188 28.683594 C 25.992188 28.683594 27.324219 24.023438 27.324219 16.027344 C 27.324219 8.035156 25.992188 3.371094 25.992188 3.371094 Z M 25.992188 3.371094 "/>
<path style=" stroke:none;fill-rule:nonzero;fill:rgb(99.607843%,80.392158%,34.117648%);fill-opacity:1;" d="M 8.671875 9.367188 L 23.328125 9.367188 L 23.328125 22.691406 L 8.671875 22.691406 Z M 8.671875 9.367188 "/>
</g>
</svg>
