<?xml version="1.0" encoding="UTF-8"?>
<svg xmlns="http://www.w3.org/2000/svg" xmlns:xlink="http://www.w3.org/1999/xlink" width="32px" height="32px" viewBox="0 0 32 32" version="1.1">
<g id="surface1">
<path style=" stroke:none;fill-rule:nonzero;fill:rgb(100%,80.000001%,40.000001%);fill-opacity:1;" d="M 24.851562 29.664062 C 25.175781 30.335938 26.097656 30.839844 27.523438 31.132812 C 27.226562 29.699219 26.71875 28.78125 26.042969 28.457031 C 25.539062 28.21875 25.042969 28.371094 24.84375 28.457031 C 24.757812 28.65625 24.601562 29.152344 24.851562 29.664062 Z M 24.851562 29.664062 "/>
<path style=" stroke:none;fill-rule:nonzero;fill:rgb(40.000001%,60.000002%,20%);fill-opacity:1;" d="M 11.121094 15.441406 C 11.035156 16.105469 11.535156 17.136719 12.109375 17.710938 C 12.421875 18.023438 12.84375 18.144531 13.1875 18.054688 L 12.246094 17.113281 C 12.09375 16.960938 12.09375 16.71875 12.246094 16.566406 C 12.394531 16.417969 12.640625 16.417969 12.789062 16.566406 L 13.730469 17.511719 C 13.824219 17.167969 13.703125 16.746094 13.390625 16.429688 C 12.8125 15.855469 11.78125 15.359375 11.121094 15.441406 Z M 11.121094 15.441406 "/>
<path style=" stroke:none;fill-rule:nonzero;fill:rgb(40.000001%,60.000002%,20%);fill-opacity:1;" d="M 16.382812 16.078125 C 16.847656 15.882812 17.179688 15.351562 17.179688 14.722656 C 17.179688 13.6875 16.703125 12.3125 16 11.820312 C 15.292969 12.3125 14.816406 13.6875 14.816406 14.722656 C 14.816406 15.351562 15.152344 15.882812 15.613281 16.078125 L 15.613281 14.308594 C 15.613281 14.097656 15.785156 13.921875 16 13.921875 C 16.210938 13.921875 16.382812 14.097656 16.382812 14.308594 Z M 16.382812 16.078125 "/>
<path style=" stroke:none;fill-rule:nonzero;fill:rgb(100%,80.000001%,40.000001%);fill-opacity:1;" d="M 5.945312 28.460938 C 5.273438 28.789062 4.773438 29.707031 4.476562 31.132812 C 5.910156 30.835938 6.828125 30.332031 7.152344 29.65625 C 7.390625 29.152344 7.238281 28.65625 7.152344 28.453125 C 6.949219 28.367188 6.457031 28.214844 5.945312 28.460938 Z M 5.945312 28.460938 "/>
<path style=" stroke:none;fill-rule:nonzero;fill:rgb(80.000001%,60.000002%,20%);fill-opacity:1;" d="M 16 3.664062 C 18.351562 3.664062 20.585938 3.824219 22.292969 4.117188 C 23.261719 4.28125 23.925781 4.464844 24.378906 4.648438 C 24.335938 4.476562 24.238281 4.054688 24.238281 4.046875 C 24.167969 3.921875 23.613281 3.546875 21.792969 3.234375 C 20.214844 2.960938 18.160156 2.8125 16 2.8125 C 13.839844 2.8125 11.78125 2.960938 10.203125 3.234375 C 8.382812 3.546875 7.828125 3.921875 7.761719 4.046875 C 7.761719 4.046875 7.660156 4.476562 7.617188 4.648438 C 8.074219 4.464844 8.734375 4.28125 9.707031 4.117188 C 11.414062 3.824219 13.644531 3.664062 16 3.664062 Z M 16 3.664062 "/>
<path style=" stroke:none;fill-rule:nonzero;fill:rgb(100%,80.000001%,40.000001%);fill-opacity:1;" d="M 7.148438 2.328125 C 6.820312 1.660156 5.902344 1.15625 4.476562 0.859375 C 4.773438 2.292969 5.277344 3.214844 5.953125 3.535156 C 6.457031 3.777344 6.953125 3.621094 7.15625 3.539062 C 7.242188 3.335938 7.394531 2.84375 7.148438 2.328125 Z M 7.148438 2.328125 "/>
<path style=" stroke:none;fill-rule:nonzero;fill:rgb(80.000001%,60.000002%,20%);fill-opacity:1;" d="M 16 28.328125 C 13.644531 28.328125 11.410156 28.167969 9.707031 27.875 C 8.734375 27.710938 8.074219 27.527344 7.617188 27.34375 C 7.660156 27.515625 7.761719 27.945312 7.761719 27.945312 C 7.828125 28.070312 8.382812 28.445312 10.203125 28.757812 C 11.78125 29.03125 13.839844 29.179688 16 29.179688 C 18.160156 29.179688 20.214844 29.03125 21.792969 28.757812 C 23.613281 28.445312 24.167969 28.070312 24.238281 27.945312 C 24.238281 27.945312 24.335938 27.515625 24.378906 27.34375 C 23.925781 27.527344 23.261719 27.710938 22.289062 27.875 C 20.585938 28.167969 18.351562 28.328125 16 28.328125 Z M 16 28.328125 "/>
<path style=" stroke:none;fill-rule:nonzero;fill:rgb(40.000001%,60.000002%,20%);fill-opacity:1;" d="M 19.226562 16.566406 C 19.378906 16.417969 19.621094 16.417969 19.773438 16.566406 C 19.921875 16.71875 19.921875 16.960938 19.773438 17.113281 L 18.820312 18.066406 C 19.164062 18.15625 19.585938 18.035156 19.898438 17.722656 C 20.472656 17.144531 20.972656 16.113281 20.886719 15.449219 C 20.222656 15.367188 19.195312 15.867188 18.617188 16.441406 C 18.304688 16.753906 18.183594 17.179688 18.277344 17.519531 Z M 19.226562 16.566406 "/>
<path style=" stroke:none;fill-rule:nonzero;fill:rgb(100%,80.000001%,40.000001%);fill-opacity:1;" d="M 22.042969 4.855469 C 20.394531 4.585938 18.25 4.4375 16 4.4375 C 13.746094 4.4375 11.601562 4.585938 9.953125 4.855469 C 8.027344 5.175781 7.445312 5.554688 7.378906 5.679688 C 5.878906 12.460938 5.878906 19.53125 7.378906 26.316406 C 7.433594 26.429688 8.007812 26.816406 9.953125 27.136719 C 11.601562 27.40625 13.746094 27.554688 16 27.554688 C 18.25 27.554688 20.394531 27.40625 22.042969 27.136719 C 23.972656 26.816406 24.554688 26.4375 24.621094 26.3125 C 26.117188 19.53125 26.117188 12.457031 24.617188 5.675781 C 24.5625 5.558594 23.984375 5.175781 22.042969 4.855469 Z M 16 23.355469 C 11.941406 23.355469 8.640625 20.054688 8.640625 15.996094 C 8.640625 11.9375 11.941406 8.636719 16 8.636719 C 20.054688 8.636719 23.359375 11.9375 23.359375 15.996094 C 23.359375 20.054688 20.054688 23.355469 16 23.355469 Z M 16 23.355469 "/>
<path style=" stroke:none;fill-rule:nonzero;fill:rgb(100%,80.000001%,40.000001%);fill-opacity:1;" d="M 26.050781 3.53125 C 26.722656 3.207031 27.226562 2.285156 27.523438 0.859375 C 26.089844 1.15625 25.167969 1.664062 24.847656 2.339844 C 24.605469 2.84375 24.757812 3.339844 24.84375 3.539062 C 25.046875 3.625 25.539062 3.78125 26.050781 3.53125 Z M 26.050781 3.53125 "/>
<path style=" stroke:none;fill-rule:nonzero;fill:rgb(80.000001%,100%,40.000001%);fill-opacity:1;" d="M 16 9.40625 C 12.367188 9.40625 9.410156 12.363281 9.410156 15.996094 C 9.410156 19.628906 12.367188 22.585938 16 22.585938 C 19.632812 22.585938 22.585938 19.628906 22.585938 15.996094 C 22.585938 12.363281 19.632812 9.40625 16 9.40625 Z M 21.335938 14.769531 C 21.441406 14.808594 21.53125 14.890625 21.570312 15.003906 C 21.957031 16.089844 21.144531 17.566406 20.441406 18.265625 C 20.046875 18.660156 19.539062 18.863281 19.050781 18.863281 C 18.761719 18.863281 18.484375 18.789062 18.238281 18.648438 L 16.382812 20.507812 L 16.382812 21.453125 C 16.382812 21.664062 16.210938 21.835938 16 21.835938 C 15.785156 21.835938 15.613281 21.664062 15.613281 21.453125 L 15.613281 20.488281 L 13.769531 18.640625 C 13.523438 18.78125 13.246094 18.851562 12.957031 18.851562 C 12.46875 18.851562 11.960938 18.652344 11.566406 18.257812 C 10.863281 17.554688 10.050781 16.082031 10.4375 14.992188 C 10.476562 14.878906 10.566406 14.796875 10.671875 14.761719 L 10.671875 14.757812 C 11.757812 14.375 13.234375 15.1875 13.933594 15.886719 C 14.5625 16.515625 14.699219 17.433594 14.316406 18.09375 L 15.613281 19.394531 L 15.613281 16.886719 C 14.71875 16.683594 14.046875 15.789062 14.046875 14.722656 C 14.046875 13.355469 14.730469 11.550781 15.832031 11.027344 C 15.933594 10.980469 16.054688 10.972656 16.164062 11.027344 C 17.269531 11.554688 17.953125 13.355469 17.953125 14.722656 C 17.953125 15.792969 17.277344 16.683594 16.382812 16.886719 L 16.382812 19.417969 L 17.691406 18.105469 C 17.308594 17.445312 17.445312 16.527344 18.074219 15.898438 C 18.773438 15.195312 20.25 14.382812 21.335938 14.769531 Z M 21.335938 14.769531 "/>
<path style=" stroke:none;fill-rule:nonzero;fill:rgb(40.000001%,20%,20%);fill-opacity:1;" d="M 17.691406 18.105469 L 16.382812 19.417969 L 16.382812 16.886719 C 17.277344 16.683594 17.953125 15.789062 17.953125 14.722656 C 17.953125 13.355469 17.269531 11.550781 16.164062 11.027344 C 16.054688 10.972656 15.933594 10.980469 15.832031 11.027344 C 14.730469 11.550781 14.046875 13.355469 14.046875 14.722656 C 14.046875 15.789062 14.722656 16.683594 15.613281 16.886719 L 15.613281 19.394531 L 14.316406 18.09375 C 14.699219 17.433594 14.5625 16.515625 13.933594 15.886719 C 13.234375 15.1875 11.757812 14.375 10.671875 14.757812 L 10.671875 14.761719 C 10.566406 14.796875 10.476562 14.878906 10.4375 14.992188 C 10.050781 16.082031 10.863281 17.554688 11.566406 18.253906 C 11.960938 18.652344 12.46875 18.851562 12.957031 18.851562 C 13.246094 18.851562 13.523438 18.78125 13.769531 18.640625 L 15.613281 20.488281 L 15.613281 21.453125 C 15.613281 21.664062 15.785156 21.835938 16 21.835938 C 16.210938 21.835938 16.382812 21.664062 16.382812 21.453125 L 16.382812 20.507812 L 18.238281 18.648438 C 18.484375 18.789062 18.761719 18.863281 19.050781 18.863281 C 19.539062 18.863281 20.046875 18.660156 20.441406 18.265625 C 21.144531 17.566406 21.957031 16.089844 21.570312 15.003906 C 21.53125 14.890625 21.441406 14.808594 21.335938 14.769531 C 20.25 14.382812 18.773438 15.195312 18.074219 15.898438 C 17.445312 16.527344 17.308594 17.445312 17.691406 18.105469 Z M 13.730469 17.511719 L 12.789062 16.566406 C 12.640625 16.417969 12.394531 16.417969 12.246094 16.566406 C 12.09375 16.71875 12.09375 16.960938 12.246094 17.113281 L 13.1875 18.054688 C 12.84375 18.144531 12.421875 18.023438 12.109375 17.710938 C 11.535156 17.136719 11.035156 16.105469 11.117188 15.441406 C 11.78125 15.359375 12.8125 15.855469 13.390625 16.429688 C 13.703125 16.746094 13.824219 17.167969 13.730469 17.511719 Z M 16 13.921875 C 15.785156 13.921875 15.613281 14.097656 15.613281 14.308594 L 15.613281 16.078125 C 15.152344 15.882812 14.816406 15.351562 14.816406 14.722656 C 14.816406 13.6875 15.292969 12.3125 16 11.820312 C 16.703125 12.3125 17.179688 13.6875 17.179688 14.722656 C 17.179688 15.351562 16.847656 15.882812 16.382812 16.078125 L 16.382812 14.308594 C 16.382812 14.097656 16.210938 13.921875 16 13.921875 Z M 18.617188 16.441406 C 19.195312 15.867188 20.222656 15.367188 20.886719 15.449219 C 20.972656 16.113281 20.472656 17.144531 19.898438 17.722656 C 19.585938 18.035156 19.164062 18.15625 18.820312 18.066406 L 19.773438 17.113281 C 19.921875 16.960938 19.921875 16.71875 19.773438 16.566406 C 19.621094 16.417969 19.378906 16.417969 19.226562 16.566406 L 18.277344 17.519531 C 18.183594 17.179688 18.304688 16.753906 18.617188 16.441406 Z M 18.617188 16.441406 "/>
<path style=" stroke:none;fill-rule:nonzero;fill:rgb(40.000001%,20%,20%);fill-opacity:1;" d="M 16 8.636719 C 11.941406 8.636719 8.640625 11.9375 8.640625 15.996094 C 8.640625 20.054688 11.941406 23.355469 16 23.355469 C 20.054688 23.355469 23.359375 20.054688 23.359375 15.996094 C 23.359375 11.9375 20.054688 8.636719 16 8.636719 Z M 16 22.585938 C 12.367188 22.585938 9.410156 19.628906 9.410156 15.996094 C 9.410156 12.363281 12.367188 9.40625 16 9.40625 C 19.632812 9.40625 22.585938 12.363281 22.585938 15.996094 C 22.585938 19.628906 19.632812 22.585938 16 22.585938 Z M 16 22.585938 "/>
<path style=" stroke:none;fill-rule:nonzero;fill:rgb(40.000001%,20%,20%);fill-opacity:1;" d="M 26.375 4.230469 C 27.386719 3.75 28.070312 2.476562 28.382812 0.441406 C 28.4375 0.0664062 28.070312 -0.015625 27.941406 0 C 25.90625 0.320312 24.632812 0.996094 24.152344 2.007812 C 23.984375 2.355469 23.9375 2.691406 23.949219 2.992188 C 23.53125 2.824219 22.957031 2.664062 22.167969 2.515625 C 20.515625 2.210938 18.324219 2.042969 16 2.042969 C 13.671875 2.042969 11.480469 2.210938 9.832031 2.515625 C 9.039062 2.664062 8.464844 2.824219 8.050781 2.992188 C 8.058594 2.691406 8.011719 2.355469 7.847656 2.007812 C 7.363281 0.996094 6.089844 0.320312 4.058594 0 L 4.054688 0 C 3.785156 -0.00390625 3.582031 0.230469 3.617188 0.441406 C 3.9375 2.472656 4.613281 3.75 5.621094 4.230469 C 5.941406 4.382812 6.253906 4.4375 6.53125 4.4375 C 6.65625 4.4375 6.773438 4.425781 6.886719 4.410156 C 5.015625 12 5.015625 19.992188 6.886719 27.585938 C 6.53125 27.53125 6.082031 27.539062 5.621094 27.761719 C 4.40625 28.351562 3.609375 31.117188 3.617188 31.671875 C 3.617188 31.867188 3.808594 32 3.996094 32 C 4.386719 32 7.347656 31.21875 7.847656 29.988281 C 7.992188 29.628906 8.058594 29.300781 8.050781 29 C 8.464844 29.167969 9.039062 29.328125 9.832031 29.476562 C 11.480469 29.78125 13.671875 29.953125 16 29.953125 C 18.324219 29.953125 20.515625 29.78125 22.167969 29.476562 C 22.957031 29.328125 23.53125 29.167969 23.949219 29 C 23.9375 29.300781 23.984375 29.640625 24.152344 29.988281 C 24.632812 30.996094 25.910156 31.652344 27.941406 31.992188 C 28.023438 32.007812 28.0625 31.992188 28.0625 31.992188 C 28.269531 31.960938 28.414062 31.761719 28.382812 31.554688 C 28.058594 29.519531 27.386719 28.246094 26.375 27.761719 C 25.914062 27.542969 25.46875 27.53125 25.113281 27.585938 C 26.980469 19.992188 26.980469 12 25.113281 4.40625 C 25.222656 4.425781 25.339844 4.4375 25.464844 4.4375 C 25.746094 4.4375 26.054688 4.382812 26.375 4.230469 Z M 7.761719 4.046875 C 7.828125 3.921875 8.382812 3.546875 10.203125 3.234375 C 11.78125 2.960938 13.839844 2.8125 16 2.8125 C 18.160156 2.8125 20.214844 2.960938 21.792969 3.234375 C 23.613281 3.546875 24.167969 3.921875 24.238281 4.046875 C 24.238281 4.054688 24.335938 4.476562 24.378906 4.648438 C 23.925781 4.464844 23.261719 4.28125 22.292969 4.117188 C 20.585938 3.824219 18.351562 3.664062 16 3.664062 C 13.644531 3.664062 11.414062 3.824219 9.707031 4.117188 C 8.734375 4.28125 8.074219 4.464844 7.617188 4.648438 C 7.660156 4.476562 7.761719 4.046875 7.761719 4.046875 Z M 5.953125 3.535156 C 5.277344 3.214844 4.773438 2.292969 4.476562 0.859375 C 5.902344 1.15625 6.820312 1.660156 7.148438 2.328125 C 7.394531 2.84375 7.242188 3.335938 7.15625 3.539062 C 6.953125 3.621094 6.457031 3.777344 5.953125 3.535156 Z M 7.152344 29.65625 C 6.828125 30.332031 5.910156 30.835938 4.476562 31.132812 C 4.773438 29.707031 5.273438 28.789062 5.945312 28.460938 C 6.457031 28.214844 6.949219 28.367188 7.152344 28.453125 C 7.238281 28.65625 7.390625 29.152344 7.152344 29.65625 Z M 24.238281 27.945312 C 24.167969 28.070312 23.613281 28.445312 21.792969 28.757812 C 20.214844 29.03125 18.160156 29.179688 16 29.179688 C 13.839844 29.179688 11.78125 29.03125 10.203125 28.757812 C 8.382812 28.445312 7.828125 28.070312 7.761719 27.945312 C 7.761719 27.945312 7.660156 27.515625 7.617188 27.34375 C 8.074219 27.527344 8.734375 27.710938 9.707031 27.875 C 11.410156 28.167969 13.644531 28.328125 16 28.328125 C 18.351562 28.328125 20.585938 28.167969 22.289062 27.875 C 23.261719 27.710938 23.925781 27.527344 24.378906 27.34375 C 24.335938 27.515625 24.238281 27.945312 24.238281 27.945312 Z M 26.042969 28.457031 C 26.71875 28.78125 27.226562 29.699219 27.523438 31.132812 C 26.097656 30.839844 25.175781 30.335938 24.851562 29.664062 C 24.601562 29.152344 24.757812 28.65625 24.84375 28.457031 C 25.042969 28.371094 25.539062 28.21875 26.042969 28.457031 Z M 24.621094 26.3125 C 24.554688 26.4375 23.972656 26.816406 22.042969 27.136719 C 20.394531 27.40625 18.25 27.554688 16 27.554688 C 13.746094 27.554688 11.601562 27.40625 9.953125 27.136719 C 8.007812 26.816406 7.433594 26.429688 7.378906 26.316406 C 5.878906 19.53125 5.878906 12.460938 7.378906 5.679688 C 7.445312 5.554688 8.027344 5.171875 9.953125 4.855469 C 11.601562 4.585938 13.746094 4.4375 16 4.4375 C 18.25 4.4375 20.394531 4.585938 22.042969 4.855469 C 23.984375 5.175781 24.5625 5.558594 24.617188 5.675781 C 26.117188 12.457031 26.117188 19.53125 24.621094 26.3125 Z M 24.84375 3.539062 C 24.757812 3.339844 24.605469 2.84375 24.847656 2.339844 C 25.167969 1.664062 26.089844 1.15625 27.523438 0.859375 C 27.226562 2.285156 26.722656 3.207031 26.050781 3.53125 C 25.539062 3.78125 25.046875 3.625 24.84375 3.539062 Z M 24.84375 3.539062 "/>
</g>
</svg>
