<?xml version="1.0" encoding="UTF-8"?>
<svg xmlns="http://www.w3.org/2000/svg" xmlns:xlink="http://www.w3.org/1999/xlink" width="32px" height="32px" viewBox="0 0 32 32" version="1.1">
<g id="surface1">
<path style=" stroke:none;fill-rule:nonzero;fill:rgb(26.274511%,61.960787%,90.980393%);fill-opacity:1;" d="M 17.871094 25.921875 L 14.128906 25.921875 C 13.851562 25.921875 13.628906 26.144531 13.628906 26.421875 L 13.628906 31.5 C 13.628906 31.777344 13.851562 32 14.128906 32 L 17.871094 32 C 18.148438 32 18.371094 31.777344 18.371094 31.5 L 18.371094 26.421875 C 18.371094 26.144531 18.148438 25.921875 17.871094 25.921875 Z M 17.871094 25.921875 "/>
<path style=" stroke:none;fill-rule:nonzero;fill:rgb(32.156864%,57.647061%,76.862746%);fill-opacity:1;" d="M 18.371094 27.757812 L 18.371094 26.421875 C 18.371094 26.144531 18.148438 25.921875 17.871094 25.921875 L 14.128906 25.921875 C 13.851562 25.921875 13.628906 26.144531 13.628906 26.421875 L 13.628906 31.5 C 13.628906 31.777344 13.851562 32 14.128906 32 L 15.332031 32 C 15.054688 32 14.832031 31.777344 14.832031 31.5 L 14.832031 27.992188 C 14.832031 27.863281 14.9375 27.757812 15.066406 27.757812 Z M 18.371094 27.757812 "/>
<path style=" stroke:none;fill-rule:nonzero;fill:rgb(36.078432%,76.862746%,87.843138%);fill-opacity:1;" d="M 23.75 0 L 8.25 0 C 7.972656 0 7.75 0.222656 7.75 0.5 L 7.75 14.664062 C 7.75 14.8125 7.816406 14.953125 7.929688 15.050781 L 12.4375 18.808594 C 12.515625 18.871094 12.558594 18.964844 12.558594 19.0625 L 12.558594 26.421875 C 12.558594 26.699219 12.785156 26.921875 13.0625 26.921875 L 18.941406 26.921875 C 19.214844 26.921875 19.441406 26.699219 19.441406 26.421875 L 19.441406 19.0625 C 19.441406 18.964844 19.484375 18.871094 19.5625 18.808594 L 24.070312 15.046875 C 24.183594 14.953125 24.25 14.8125 24.25 14.664062 L 24.25 0.5 C 24.25 0.222656 24.027344 0 23.75 0 Z M 23.75 0 "/>
<path style=" stroke:none;fill-rule:nonzero;fill:rgb(26.274511%,61.960787%,90.980393%);fill-opacity:1;" d="M 13.828125 26.421875 L 13.828125 19.0625 C 13.828125 18.964844 13.785156 18.871094 13.707031 18.808594 L 9.199219 15.046875 C 9.085938 14.953125 9.019531 14.8125 9.019531 14.664062 L 9.019531 0.5 C 9.019531 0.222656 9.242188 0 9.519531 0 L 8.25 0 C 7.972656 0 7.75 0.222656 7.75 0.5 L 7.75 14.664062 C 7.75 14.8125 7.816406 14.953125 7.929688 15.046875 L 12.4375 18.808594 C 12.515625 18.871094 12.558594 18.964844 12.558594 19.0625 L 12.558594 26.421875 C 12.558594 26.699219 12.785156 26.921875 13.0625 26.921875 L 14.328125 26.921875 C 14.054688 26.921875 13.828125 26.699219 13.828125 26.421875 Z M 13.828125 26.421875 "/>
<path style=" stroke:none;fill-rule:nonzero;fill:rgb(74.509805%,90.588236%,95.294118%);fill-opacity:1;" d="M 16.199219 2.070312 L 15.734375 2.070312 C 15.457031 2.070312 15.230469 1.847656 15.230469 1.570312 C 15.230469 1.292969 15.457031 1.070312 15.734375 1.070312 L 16.199219 1.070312 C 16.476562 1.070312 16.703125 1.292969 16.703125 1.570312 C 16.703125 1.847656 16.476562 2.070312 16.199219 2.070312 Z M 16.199219 2.070312 "/>
<path style=" stroke:none;fill-rule:nonzero;fill:rgb(74.509805%,90.588236%,95.294118%);fill-opacity:1;" d="M 18.539062 2.070312 L 18.070312 2.070312 C 17.792969 2.070312 17.570312 1.847656 17.570312 1.570312 C 17.570312 1.292969 17.792969 1.070312 18.070312 1.070312 L 18.539062 1.070312 C 18.816406 1.070312 19.039062 1.292969 19.039062 1.570312 C 19.039062 1.847656 18.816406 2.070312 18.539062 2.070312 Z M 18.539062 2.070312 "/>
<path style=" stroke:none;fill-rule:nonzero;fill:rgb(74.509805%,90.588236%,95.294118%);fill-opacity:1;" d="M 20.875 2.070312 L 20.410156 2.070312 C 20.132812 2.070312 19.90625 1.847656 19.90625 1.570312 C 19.90625 1.292969 20.132812 1.070312 20.410156 1.070312 L 20.875 1.070312 C 21.152344 1.070312 21.378906 1.292969 21.378906 1.570312 C 21.378906 1.847656 21.152344 2.070312 20.875 2.070312 Z M 20.875 2.070312 "/>
<path style=" stroke:none;fill-rule:nonzero;fill:rgb(74.509805%,90.588236%,95.294118%);fill-opacity:1;" d="M 13.929688 2.070312 L 13.460938 2.070312 C 13.183594 2.070312 12.960938 1.847656 12.960938 1.570312 C 12.960938 1.292969 13.183594 1.070312 13.460938 1.070312 L 13.929688 1.070312 C 14.207031 1.070312 14.429688 1.292969 14.429688 1.570312 C 14.429688 1.847656 14.207031 2.070312 13.929688 2.070312 Z M 13.929688 2.070312 "/>
<path style=" stroke:none;fill-rule:nonzero;fill:rgb(74.509805%,90.588236%,95.294118%);fill-opacity:1;" d="M 11.589844 2.070312 L 11.125 2.070312 C 10.847656 2.070312 10.621094 1.847656 10.621094 1.570312 C 10.621094 1.292969 10.847656 1.070312 11.125 1.070312 L 11.589844 1.070312 C 11.867188 1.070312 12.09375 1.292969 12.09375 1.570312 C 12.09375 1.847656 11.867188 2.070312 11.589844 2.070312 Z M 11.589844 2.070312 "/>
<path style=" stroke:none;fill-rule:nonzero;fill:rgb(32.156864%,57.647061%,76.862746%);fill-opacity:1;" d="M 21.613281 2.671875 L 10.386719 2.671875 C 10.113281 2.671875 9.886719 2.898438 9.886719 3.171875 L 9.886719 12.527344 C 9.886719 12.804688 10.113281 13.027344 10.386719 13.027344 L 21.613281 13.027344 C 21.886719 13.027344 22.113281 12.804688 22.113281 12.527344 L 22.113281 3.171875 C 22.113281 2.898438 21.886719 2.671875 21.613281 2.671875 Z M 21.613281 2.671875 "/>
<path style=" stroke:none;fill-rule:nonzero;fill:rgb(87.843138%,86.666667%,87.450981%);fill-opacity:1;" d="M 10.890625 11.792969 L 10.890625 3.90625 C 10.890625 3.777344 10.992188 3.675781 11.125 3.675781 L 20.875 3.675781 C 21.007812 3.675781 21.109375 3.777344 21.109375 3.90625 L 21.109375 11.792969 C 21.109375 11.921875 21.007812 12.023438 20.875 12.023438 L 11.125 12.023438 C 10.992188 12.023438 10.890625 11.921875 10.890625 11.792969 Z M 10.890625 11.792969 "/>
<path style=" stroke:none;fill-rule:nonzero;fill:rgb(97.647059%,97.254902%,97.647059%);fill-opacity:1;" d="M 11.523438 11.589844 L 20.410156 11.589844 C 20.539062 11.589844 20.644531 11.484375 20.644531 11.355469 L 20.644531 4.34375 C 20.644531 4.214844 20.539062 4.109375 20.410156 4.109375 L 11.523438 4.109375 C 11.394531 4.109375 11.289062 4.214844 11.289062 4.34375 L 11.289062 11.355469 C 11.289062 11.484375 11.394531 11.589844 11.523438 11.589844 Z M 11.523438 11.589844 "/>
<path style=" stroke:none;fill-rule:nonzero;fill:rgb(100%,40.392157%,36.078432%);fill-opacity:1;" d="M 14.929688 4.808594 L 12.257812 4.808594 C 11.980469 4.808594 11.757812 5.035156 11.757812 5.3125 L 11.757812 10.386719 C 11.757812 10.664062 11.980469 10.890625 12.257812 10.890625 C 12.535156 10.890625 12.761719 10.664062 12.761719 10.386719 L 12.761719 8.21875 L 14.929688 8.21875 C 15.207031 8.21875 15.433594 7.992188 15.433594 7.714844 L 15.433594 5.3125 C 15.433594 5.035156 15.207031 4.808594 14.929688 4.808594 Z M 14.429688 7.214844 L 12.761719 7.214844 L 12.761719 5.8125 L 14.429688 5.8125 Z M 14.429688 7.214844 "/>
<path style=" stroke:none;fill-rule:nonzero;fill:rgb(100%,40.392157%,36.078432%);fill-opacity:1;" d="M 19.742188 4.808594 C 19.464844 4.808594 19.238281 5.035156 19.238281 5.3125 L 19.238281 7.214844 L 17.035156 7.214844 L 17.035156 5.3125 C 17.035156 5.035156 16.8125 4.808594 16.535156 4.808594 C 16.257812 4.808594 16.035156 5.035156 16.035156 5.3125 L 16.035156 10.386719 C 16.035156 10.664062 16.257812 10.890625 16.535156 10.890625 C 16.8125 10.890625 17.035156 10.664062 17.035156 10.386719 L 17.035156 8.21875 L 19.238281 8.21875 L 19.238281 10.386719 C 19.238281 10.664062 19.464844 10.890625 19.742188 10.890625 C 20.019531 10.890625 20.242188 10.664062 20.242188 10.386719 L 20.242188 5.3125 C 20.242188 5.035156 20.019531 4.808594 19.742188 4.808594 Z M 19.742188 4.808594 "/>
<path style=" stroke:none;fill-rule:nonzero;fill:rgb(96.862745%,54.509807%,30.980393%);fill-opacity:1;" d="M 13.460938 13.863281 C 12.523438 13.863281 11.757812 14.625 11.757812 15.566406 C 11.757812 16.503906 12.523438 17.269531 13.460938 17.269531 C 14.402344 17.269531 15.164062 16.503906 15.164062 15.566406 C 15.164062 14.625 14.402344 13.863281 13.460938 13.863281 Z M 13.460938 13.863281 "/>
<path style=" stroke:none;fill-rule:nonzero;fill:rgb(98.431373%,93.725491%,64.705884%);fill-opacity:1;" d="M 13.460938 14.398438 C 14.105469 14.398438 14.628906 14.921875 14.628906 15.566406 C 14.628906 16.210938 14.105469 16.734375 13.460938 16.734375 C 12.816406 16.734375 12.292969 16.210938 12.292969 15.566406 C 12.292969 14.921875 12.816406 14.398438 13.460938 14.398438 M 13.460938 13.863281 C 12.523438 13.863281 11.757812 14.625 11.757812 15.566406 C 11.757812 16.503906 12.523438 17.269531 13.460938 17.269531 C 14.402344 17.269531 15.164062 16.503906 15.164062 15.566406 C 15.164062 14.625 14.402344 13.863281 13.460938 13.863281 Z M 13.460938 13.863281 "/>
<path style=" stroke:none;fill-rule:nonzero;fill:rgb(96.862745%,54.509807%,30.980393%);fill-opacity:1;" d="M 18.539062 13.863281 C 17.597656 13.863281 16.835938 14.625 16.835938 15.566406 C 16.835938 16.503906 17.597656 17.269531 18.539062 17.269531 C 19.476562 17.269531 20.242188 16.503906 20.242188 15.566406 C 20.242188 14.625 19.476562 13.863281 18.539062 13.863281 Z M 18.539062 13.863281 "/>
<path style=" stroke:none;fill-rule:nonzero;fill:rgb(98.431373%,93.725491%,64.705884%);fill-opacity:1;" d="M 18.539062 14.398438 C 19.183594 14.398438 19.707031 14.921875 19.707031 15.566406 C 19.707031 16.210938 19.183594 16.734375 18.539062 16.734375 C 17.894531 16.734375 17.371094 16.210938 17.371094 15.566406 C 17.371094 14.921875 17.894531 14.398438 18.539062 14.398438 M 18.539062 13.863281 C 17.597656 13.863281 16.835938 14.625 16.835938 15.566406 C 16.835938 16.503906 17.597656 17.269531 18.539062 17.269531 C 19.476562 17.269531 20.242188 16.503906 20.242188 15.566406 C 20.242188 14.625 19.476562 13.863281 18.539062 13.863281 Z M 18.539062 13.863281 "/>
</g>
</svg>
