<?xml version="1.0" encoding="UTF-8"?>
<svg xmlns="http://www.w3.org/2000/svg" xmlns:xlink="http://www.w3.org/1999/xlink" width="32px" height="32px" viewBox="0 0 32 32" version="1.1">
<g id="surface1">
<path style=" stroke:none;fill-rule:nonzero;fill:rgb(100%,40.000001%,40.000001%);fill-opacity:1;" d="M 11.914062 16.34375 C 11.683594 17.316406 11.515625 18.410156 11.480469 19.609375 C 11.472656 19.824219 11.371094 21.683594 10.164062 22.109375 C 10.160156 22.109375 7.621094 22.847656 6.828125 25.808594 C 6.160156 28.308594 6.910156 30.710938 8.589844 31.1875 C 10.269531 31.664062 12.210938 30.03125 12.917969 27.542969 C 12.945312 27.441406 12.972656 27.339844 12.996094 27.238281 C 13.03125 27.097656 13.140625 26.996094 13.273438 26.964844 C 13.890625 26.832031 13.75 25.734375 13.460938 24.070312 C 13.335938 23.355469 13.207031 22.613281 13.175781 21.917969 C 13.074219 19.722656 13.363281 18.003906 13.785156 16.703125 Z M 12.109375 27.3125 C 11.691406 28.773438 10.617188 29.792969 9.488281 29.792969 C 9.324219 29.792969 9.160156 29.769531 9.003906 29.722656 C 8.382812 29.546875 7.902344 29.050781 7.652344 28.324219 C 7.417969 27.644531 7.410156 26.832031 7.636719 26.039062 C 8.050781 24.582031 9.128906 23.5625 10.253906 23.5625 C 10.421875 23.5625 10.582031 23.582031 10.738281 23.628906 C 11.363281 23.804688 11.84375 24.300781 12.09375 25.027344 C 12.328125 25.710938 12.332031 26.519531 12.109375 27.3125 Z M 12.109375 27.3125 "/>
<path style=" stroke:none;fill-rule:nonzero;fill:rgb(60.000002%,60.000002%,60.000002%);fill-opacity:1;" d="M 12.101562 15.636719 L 14.035156 16.003906 C 14.535156 14.753906 15.132812 13.976562 15.480469 13.59375 C 14.820312 12.945312 14.179688 12.070312 13.890625 11.65625 C 13.460938 12.308594 12.660156 13.6875 12.101562 15.636719 Z M 12.101562 15.636719 "/>
<path style=" stroke:none;fill-rule:nonzero;fill:rgb(60.000002%,60.000002%,60.000002%);fill-opacity:1;" d="M 16.003906 8.625 L 14.214844 2.339844 C 14.148438 4.027344 14.269531 6.597656 15.253906 9.042969 Z M 16.003906 8.625 "/>
<path style=" stroke:none;fill-rule:nonzero;fill:rgb(60.000002%,60.000002%,60.000002%);fill-opacity:1;" d="M 18.285156 10.652344 C 19.421875 8.46875 19.753906 6.148438 19.265625 3.742188 C 19.058594 2.726562 18.742188 1.902344 18.488281 1.347656 L 16.59375 8.015625 L 16.777344 8.667969 C 17.101562 9.269531 17.996094 10.316406 18.285156 10.652344 Z M 18.285156 10.652344 "/>
<path style=" stroke:none;fill-rule:nonzero;fill:rgb(100%,80.000001%,40.000001%);fill-opacity:1;" d="M 16.316406 11.171875 C 16.148438 11.171875 16.011719 11.308594 16.011719 11.476562 C 16.011719 11.644531 16.148438 11.777344 16.316406 11.777344 C 16.480469 11.777344 16.617188 11.644531 16.617188 11.476562 C 16.617188 11.308594 16.480469 11.171875 16.316406 11.171875 Z M 16.316406 11.171875 "/>
<path style=" stroke:none;fill-rule:nonzero;fill:rgb(100%,40.000001%,40.000001%);fill-opacity:1;" d="M 21.878906 22.121094 C 20.644531 21.714844 20.539062 19.824219 20.53125 19.609375 C 20.496094 18.410156 20.332031 17.316406 20.101562 16.34375 L 18.226562 16.703125 C 18.648438 18.003906 18.9375 19.722656 18.835938 21.917969 C 18.804688 22.613281 18.675781 23.355469 18.550781 24.070312 C 18.261719 25.734375 18.121094 26.832031 18.738281 26.964844 C 18.871094 26.992188 18.96875 27.089844 19.007812 27.210938 L 19.015625 27.210938 C 19.039062 27.3125 19.066406 27.417969 19.09375 27.515625 C 19.800781 30.003906 21.746094 31.636719 23.421875 31.160156 C 25.101562 30.683594 25.902344 28.265625 25.183594 25.78125 C 24.351562 22.898438 21.917969 22.132812 21.878906 22.121094 Z M 24.359375 28.324219 C 24.109375 29.050781 23.628906 29.546875 23.007812 29.722656 C 22.851562 29.769531 22.6875 29.792969 22.523438 29.792969 C 21.394531 29.792969 20.320312 28.773438 19.90625 27.3125 C 19.679688 26.519531 19.683594 25.710938 19.917969 25.027344 C 20.171875 24.300781 20.652344 23.804688 21.273438 23.628906 C 21.429688 23.582031 21.59375 23.5625 21.757812 23.5625 C 22.882812 23.5625 23.960938 24.582031 24.375 26.039062 C 24.601562 26.832031 24.59375 27.644531 24.359375 28.324219 Z M 24.359375 28.324219 "/>
<path style=" stroke:none;fill-rule:nonzero;fill:rgb(80.000001%,80.000001%,80.000001%);fill-opacity:1;" d="M 17.824219 11.234375 C 17.722656 11.125 16.800781 10.074219 16.300781 9.296875 L 15.257812 9.882812 C 15.152344 9.941406 14.863281 9.980469 14.742188 9.710938 C 13.585938 7.074219 13.410156 4.3125 13.472656 2.460938 C 13.34375 2.839844 13.222656 3.261719 13.125 3.726562 C 12.609375 6.191406 12.984375 8.578125 14.230469 10.824219 C 14.234375 10.824219 14.820312 11.917969 16.253906 13.3125 C 17.351562 14.378906 17.554688 14.933594 17.976562 16.003906 L 19.914062 15.636719 C 19.136719 12.929688 17.902344 11.332031 17.824219 11.234375 Z M 16.316406 12.511719 C 15.746094 12.511719 15.28125 12.046875 15.28125 11.476562 C 15.28125 10.90625 15.746094 10.441406 16.316406 10.441406 C 16.886719 10.441406 17.351562 10.90625 17.351562 11.476562 C 17.351562 12.046875 16.886719 12.511719 16.316406 12.511719 Z M 16.316406 12.511719 "/>
<path style=" stroke:none;fill-rule:nonzero;fill:rgb(40.000001%,20%,20%);fill-opacity:1;" d="M 16.316406 10.441406 C 15.746094 10.441406 15.28125 10.90625 15.28125 11.476562 C 15.28125 12.046875 15.746094 12.511719 16.316406 12.511719 C 16.886719 12.511719 17.351562 12.046875 17.351562 11.476562 C 17.351562 10.90625 16.886719 10.441406 16.316406 10.441406 Z M 16.316406 11.777344 C 16.148438 11.777344 16.011719 11.644531 16.011719 11.476562 C 16.011719 11.308594 16.148438 11.171875 16.316406 11.171875 C 16.480469 11.171875 16.617188 11.308594 16.617188 11.476562 C 16.617188 11.644531 16.480469 11.777344 16.316406 11.777344 Z M 16.316406 11.777344 "/>
<path style=" stroke:none;fill-rule:nonzero;fill:rgb(40.000001%,20%,20%);fill-opacity:1;" d="M 10.738281 23.628906 C 10.582031 23.582031 10.421875 23.5625 10.253906 23.5625 C 9.128906 23.5625 8.050781 24.582031 7.636719 26.039062 C 7.410156 26.832031 7.417969 27.644531 7.652344 28.324219 C 7.902344 29.050781 8.382812 29.546875 9.003906 29.722656 C 9.160156 29.769531 9.324219 29.792969 9.488281 29.792969 C 10.617188 29.792969 11.691406 28.773438 12.109375 27.3125 C 12.332031 26.519531 12.328125 25.710938 12.09375 25.027344 C 11.84375 24.300781 11.363281 23.804688 10.738281 23.628906 Z M 11.402344 27.113281 C 11.089844 28.222656 10.265625 29.058594 9.488281 29.058594 C 9.394531 29.058594 9.296875 29.046875 9.207031 29.019531 C 8.820312 28.910156 8.515625 28.578125 8.34375 28.085938 C 8.15625 27.542969 8.15625 26.890625 8.339844 26.242188 C 8.65625 25.128906 9.480469 24.292969 10.253906 24.292969 C 10.351562 24.292969 10.449219 24.304688 10.539062 24.332031 C 10.925781 24.441406 11.230469 24.773438 11.402344 25.269531 C 11.585938 25.808594 11.589844 26.464844 11.402344 27.113281 Z M 11.402344 27.113281 "/>
<path style=" stroke:none;fill-rule:nonzero;fill:rgb(40.000001%,20%,20%);fill-opacity:1;" d="M 21.757812 23.5625 C 21.59375 23.5625 21.429688 23.582031 21.273438 23.628906 C 20.652344 23.804688 20.171875 24.300781 19.917969 25.027344 C 19.683594 25.710938 19.679688 26.519531 19.90625 27.3125 C 20.320312 28.773438 21.398438 29.792969 22.523438 29.792969 C 22.6875 29.792969 22.851562 29.769531 23.007812 29.722656 C 23.628906 29.546875 24.109375 29.050781 24.359375 28.324219 C 24.59375 27.644531 24.601562 26.832031 24.375 26.039062 C 23.960938 24.582031 22.882812 23.5625 21.757812 23.5625 Z M 23.667969 28.085938 C 23.496094 28.578125 23.191406 28.910156 22.808594 29.019531 C 22.714844 29.046875 22.621094 29.058594 22.523438 29.058594 C 21.746094 29.058594 20.925781 28.222656 20.609375 27.113281 C 20.421875 26.464844 20.425781 25.808594 20.609375 25.269531 C 20.78125 24.773438 21.089844 24.441406 21.472656 24.332031 C 21.5625 24.304688 21.660156 24.292969 21.757812 24.292969 C 22.53125 24.292969 23.355469 25.128906 23.671875 26.242188 C 23.855469 26.890625 23.855469 27.542969 23.667969 28.085938 Z M 23.667969 28.085938 "/>
<path style=" stroke:none;fill-rule:nonzero;fill:rgb(40.000001%,20%,20%);fill-opacity:1;" d="M 22.0625 21.386719 C 21.457031 21.136719 21.28125 20.011719 21.261719 19.585938 C 21.136719 15.363281 19.519531 12.441406 18.765625 11.296875 C 20.445312 8.285156 20.359375 5.457031 19.984375 3.597656 C 19.566406 1.539062 18.730469 0.222656 18.695312 0.167969 C 18.617188 0.046875 18.476562 -0.015625 18.332031 0.00390625 C 18.191406 0.0234375 18.074219 0.128906 18.035156 0.265625 L 16.210938 6.679688 L 14.386719 0.265625 C 14.347656 0.128906 14.234375 0.0273438 14.09375 0.00390625 C 13.949219 -0.015625 13.808594 0.0429688 13.730469 0.164062 C 13.695312 0.21875 12.84375 1.511719 12.414062 3.546875 C 12.035156 5.335938 11.933594 8.042969 13.476562 10.964844 C 12.902344 11.757812 10.890625 14.855469 10.75 19.582031 C 10.734375 19.992188 10.546875 21.203125 9.914062 21.421875 C 8.257812 21.777344 6.738281 23.453125 6.125 25.609375 C 5.304688 28.484375 6.320312 31.304688 8.386719 31.890625 C 8.644531 31.964844 8.90625 32 9.171875 32 C 12.421875 32 13.644531 27.65625 13.65625 27.609375 C 14.742188 27.175781 14.457031 25.535156 14.183594 23.949219 C 14.0625 23.25 13.9375 22.53125 13.90625 21.882812 C 13.6875 17.207031 15.371094 14.832031 16.007812 14.105469 C 16.644531 14.832031 18.324219 17.207031 18.105469 21.882812 C 18.074219 22.53125 17.949219 23.25 17.828125 23.949219 C 17.554688 25.539062 17.269531 27.183594 18.363281 27.613281 C 18.371094 27.648438 19.433594 31.972656 22.839844 31.972656 C 23.105469 31.972656 23.367188 31.9375 23.625 31.863281 C 25.691406 31.277344 26.675781 28.464844 25.890625 25.582031 C 24.945312 22.125 22.0625 21.386719 22.0625 21.386719 Z M 18.488281 1.347656 C 18.742188 1.902344 19.058594 2.726562 19.265625 3.742188 C 19.753906 6.148438 19.421875 8.46875 18.285156 10.652344 C 17.996094 10.316406 17.101562 9.269531 16.777344 8.667969 L 16.59375 8.015625 Z M 14.214844 2.339844 L 16.003906 8.625 L 15.253906 9.042969 C 14.269531 6.597656 14.148438 4.027344 14.214844 2.339844 Z M 13.175781 21.917969 C 13.207031 22.613281 13.335938 23.355469 13.460938 24.070312 C 13.75 25.734375 13.890625 26.832031 13.273438 26.964844 C 13.140625 26.996094 13.03125 27.097656 12.996094 27.238281 C 12.972656 27.339844 12.945312 27.441406 12.917969 27.542969 C 12.210938 30.03125 10.269531 31.664062 8.589844 31.1875 C 6.910156 30.710938 6.160156 28.308594 6.828125 25.808594 C 7.621094 22.847656 10.160156 22.109375 10.164062 22.109375 C 11.371094 21.683594 11.472656 19.824219 11.480469 19.609375 C 11.515625 18.410156 11.683594 17.316406 11.914062 16.34375 L 13.785156 16.703125 C 13.363281 18.003906 13.074219 19.722656 13.175781 21.917969 Z M 14.035156 16.003906 L 12.101562 15.636719 C 12.660156 13.6875 13.460938 12.308594 13.890625 11.65625 C 14.179688 12.070312 14.820312 12.945312 15.480469 13.59375 C 15.132812 13.976562 14.535156 14.753906 14.035156 16.003906 Z M 17.976562 16.003906 C 17.554688 14.933594 17.351562 14.378906 16.253906 13.3125 C 14.820312 11.917969 14.230469 10.824219 14.230469 10.824219 C 12.984375 8.578125 12.609375 6.191406 13.125 3.726562 C 13.222656 3.261719 13.34375 2.839844 13.472656 2.460938 C 13.410156 4.3125 13.585938 7.074219 14.742188 9.710938 C 14.863281 9.980469 15.152344 9.941406 15.257812 9.882812 L 16.300781 9.296875 C 16.800781 10.074219 17.722656 11.125 17.824219 11.234375 C 17.902344 11.332031 19.136719 12.929688 19.914062 15.636719 Z M 23.421875 31.160156 C 21.746094 31.636719 19.800781 30.003906 19.09375 27.515625 C 19.066406 27.417969 19.039062 27.3125 19.015625 27.210938 L 19.007812 27.210938 C 18.96875 27.089844 18.871094 26.992188 18.738281 26.964844 C 18.121094 26.832031 18.261719 25.734375 18.550781 24.070312 C 18.675781 23.355469 18.804688 22.613281 18.835938 21.917969 C 18.9375 19.722656 18.648438 18.003906 18.226562 16.703125 L 20.101562 16.34375 C 20.332031 17.316406 20.496094 18.410156 20.53125 19.609375 C 20.539062 19.824219 20.644531 21.714844 21.878906 22.121094 C 21.917969 22.132812 24.351562 22.898438 25.183594 25.78125 C 25.902344 28.265625 25.101562 30.683594 23.421875 31.160156 Z M 23.421875 31.160156 "/>
</g>
</svg>
