<?xml version="1.0" encoding="UTF-8"?>
<svg xmlns="http://www.w3.org/2000/svg" xmlns:xlink="http://www.w3.org/1999/xlink" width="32px" height="32px" viewBox="0 0 32 32" version="1.1">
<g id="surface1">
<path style=" stroke:none;fill-rule:nonzero;fill:rgb(89.803922%,90.980393%,92.54902%);fill-opacity:1;" d="M 5.722656 21.976562 C 4.46875 21.351562 2.839844 19.507812 1.582031 17.28125 C 0.949219 16.167969 0.484375 15.0625 0.230469 14.09375 C -0.0820312 12.910156 -0.078125 11.925781 0.242188 11.175781 C 0.496094 10.578125 1.074219 9.832031 2.410156 9.660156 C 3.449219 9.527344 4.769531 9.75 6.453125 10.347656 L 6.007812 11.605469 C 4.546875 11.085938 2.015625 10.410156 1.46875 11.695312 C 1.070312 12.640625 1.558594 14.527344 2.742188 16.625 C 3.84375 18.574219 5.3125 20.28125 6.316406 20.78125 Z M 5.722656 21.976562 "/>
<path style=" stroke:none;fill-rule:nonzero;fill:rgb(58.823532%,47.843137%,85.490197%);fill-opacity:1;" d="M 26.34375 14.6875 L 27.285156 15.628906 L 18.441406 24.476562 L 17.496094 23.53125 Z M 26.34375 14.6875 "/>
<path style=" stroke:none;fill-rule:nonzero;fill:rgb(89.803922%,90.980393%,92.54902%);fill-opacity:1;" d="M 26.339844 14.6875 L 27.285156 15.628906 L 32 14.6875 L 27.285156 9.96875 Z M 26.339844 14.6875 "/>
<path style=" stroke:none;fill-rule:nonzero;fill:rgb(67.450982%,57.254905%,91.764706%);fill-opacity:1;" d="M 5.324219 10.664062 C 5.324219 9.925781 5.921875 9.332031 6.65625 9.332031 L 18.660156 9.332031 C 19.398438 9.332031 19.996094 9.925781 19.996094 10.664062 L 19.996094 25.335938 C 19.996094 26.074219 16.710938 26.671875 12.660156 26.671875 C 8.609375 26.671875 5.324219 26.074219 5.324219 25.335938 Z M 5.324219 10.664062 "/>
<path style=" stroke:none;fill-rule:nonzero;fill:rgb(89.803922%,90.980393%,92.54902%);fill-opacity:1;" d="M 12.660156 5.328125 C 12.292969 5.328125 11.992188 5.628906 11.992188 5.996094 L 11.992188 11.332031 C 11.992188 11.699219 12.292969 12 12.660156 12 C 13.027344 12 13.328125 11.699219 13.328125 11.332031 L 13.328125 5.996094 C 13.328125 5.628906 13.027344 5.328125 12.660156 5.328125 Z M 12.660156 5.328125 "/>
<path style=" stroke:none;fill-rule:nonzero;fill:rgb(99.607843%,80.392158%,34.117648%);fill-opacity:1;" d="M 9.945312 17.9375 C 9.699219 17.386719 9.804688 16.71875 10.257812 16.265625 C 10.710938 15.8125 11.378906 15.707031 11.933594 15.949219 C 12.289062 15.464844 12.921875 15.21875 13.539062 15.382812 C 14.160156 15.550781 14.582031 16.078125 14.648438 16.679688 C 15.25 16.742188 15.777344 17.167969 15.941406 17.789062 C 16.109375 18.40625 15.863281 19.039062 15.375 19.394531 C 15.621094 19.949219 15.515625 20.617188 15.0625 21.070312 C 14.609375 21.523438 13.941406 21.628906 13.386719 21.382812 C 13.03125 21.871094 12.398438 22.117188 11.78125 21.949219 C 11.160156 21.785156 10.738281 21.257812 10.671875 20.65625 C 10.070312 20.589844 9.542969 20.167969 9.378906 19.546875 C 9.210938 18.929688 9.457031 18.296875 9.945312 17.9375 Z M 9.945312 17.9375 "/>
<path style=" stroke:none;fill-rule:nonzero;fill:rgb(96.078432%,72.941178%,27.058825%);fill-opacity:1;" d="M 12.171875 22.667969 C 11.980469 22.667969 11.792969 22.644531 11.609375 22.59375 C 10.910156 22.40625 10.351562 21.878906 10.117188 21.210938 C 9.449219 20.976562 8.921875 20.417969 8.734375 19.71875 C 8.546875 19.019531 8.726562 18.273438 9.1875 17.738281 C 9.058594 17.042969 9.273438 16.304688 9.785156 15.792969 C 10.195312 15.382812 10.742188 15.15625 11.320312 15.15625 C 11.460938 15.15625 11.597656 15.167969 11.730469 15.195312 C 12.121094 14.859375 12.625 14.664062 13.148438 14.664062 C 13.339844 14.664062 13.527344 14.691406 13.710938 14.738281 C 14.410156 14.925781 14.964844 15.457031 15.203125 16.125 C 15.867188 16.359375 16.398438 16.917969 16.585938 17.613281 C 16.773438 18.3125 16.59375 19.058594 16.132812 19.597656 C 16.261719 20.292969 16.046875 21.03125 15.535156 21.542969 C 15.125 21.953125 14.578125 22.179688 13.996094 22.179688 C 13.859375 22.179688 13.722656 22.167969 13.589844 22.140625 C 13.199219 22.476562 12.695312 22.667969 12.171875 22.667969 Z M 11.320312 16.492188 C 11.097656 16.492188 10.886719 16.578125 10.726562 16.738281 C 10.484375 16.980469 10.414062 17.355469 10.554688 17.671875 L 10.769531 18.160156 L 10.335938 18.480469 C 10.058594 18.683594 9.933594 19.042969 10.019531 19.375 C 10.109375 19.707031 10.402344 19.957031 10.742188 19.992188 L 11.277344 20.050781 L 11.335938 20.585938 C 11.371094 20.925781 11.621094 21.21875 11.953125 21.304688 C 12.023438 21.324219 12.097656 21.335938 12.171875 21.335938 C 12.4375 21.335938 12.691406 21.207031 12.847656 20.992188 L 13.164062 20.558594 L 13.65625 20.773438 C 13.765625 20.820312 13.878906 20.847656 13.996094 20.847656 C 14.222656 20.847656 14.433594 20.757812 14.589844 20.601562 C 14.835938 20.355469 14.90625 19.980469 14.765625 19.664062 L 14.550781 19.175781 L 14.980469 18.859375 C 15.261719 18.652344 15.386719 18.292969 15.296875 17.960938 C 15.210938 17.628906 14.917969 17.378906 14.578125 17.34375 L 14.042969 17.285156 L 13.984375 16.75 C 13.949219 16.40625 13.699219 16.117188 13.367188 16.027344 C 13.296875 16.007812 13.222656 16 13.148438 16 C 12.882812 16 12.628906 16.128906 12.46875 16.34375 L 12.152344 16.777344 L 11.664062 16.5625 C 11.554688 16.515625 11.441406 16.492188 11.320312 16.492188 Z M 11.320312 16.492188 "/>
<path style=" stroke:none;fill-rule:nonzero;fill:rgb(95.686275%,96.470588%,97.647059%);fill-opacity:1;" d="M 11.992188 18.667969 C 11.992188 19.035156 12.292969 19.335938 12.660156 19.335938 C 13.027344 19.335938 13.328125 19.035156 13.328125 18.667969 C 13.328125 18.300781 13.027344 18 12.660156 18 C 12.292969 18 11.992188 18.300781 11.992188 18.667969 Z M 11.992188 18.667969 "/>
</g>
</svg>
